<svg width="24" height="24" viewBox="0 0 24 24" fill="none" xmlns="http://www.w3.org/2000/svg">
<g clip-path="url(#clip0_6686_806)">
<path d="M12.7196 2.03007C6.62958 1.60007 1.59958 6.63007 2.02958 12.7201C2.38958 18.0101 7.00958 22.0001 12.3096 22.0001H15.9996C16.5496 22.0001 16.9996 21.5501 16.9996 21.0001C16.9996 20.4501 16.5496 20.0001 15.9996 20.0001H12.3296C8.59958 20.0001 5.17958 17.5801 4.24958 13.9701C2.75958 8.17007 8.15958 2.76007 13.9596 4.26007C17.5796 5.18007 19.9996 8.60007 19.9996 12.3301V13.4301C19.9996 14.2201 19.2896 15.0001 18.4996 15.0001C17.7096 15.0001 16.9996 14.2201 16.9996 13.4301V12.1801C16.9996 9.67007 15.2196 7.41007 12.7396 7.06007C9.33958 6.57007 6.46958 9.51007 7.07958 12.9301C7.41958 14.8401 8.90958 16.4201 10.7996 16.8701C12.6396 17.3001 14.3896 16.7101 15.5396 15.5401C16.4296 16.7601 18.2096 17.4001 19.8396 16.7501C21.1796 16.2201 21.9996 14.8501 21.9996 13.4101V12.3201C21.9996 7.01007 18.0096 2.39007 12.7196 2.03007ZM11.9996 15.0001C10.3396 15.0001 8.99958 13.6601 8.99958 12.0001C8.99958 10.3401 10.3396 9.00007 11.9996 9.00007C13.6596 9.00007 14.9996 10.3401 14.9996 12.0001C14.9996 13.6601 13.6596 15.0001 11.9996 15.0001Z" fill="#0E479C"/>
</g>
<defs>
<clipPath id="clip0_6686_806">
<rect width="24" height="24" fill="white"/>
</clipPath>
</defs>
</svg>
