<svg width="20" height="20" viewBox="0 0 20 20" fill="none" xmlns="http://www.w3.org/2000/svg">
<g clip-path="url(#clip0_6686_240)">
<path d="M6.85127 13.6136H6.16978C5.70049 13.6136 5.31689 13.9972 5.31689 14.4664C5.31689 14.9357 5.70049 15.3193 6.16978 15.3193H6.85127C7.32057 15.3193 7.70416 14.9357 7.70416 14.4664C7.70008 13.9972 7.31649 13.6136 6.85127 13.6136Z" fill="#0E479C"/>
<path d="M13.8259 13.6136H13.1444C12.6751 13.6136 12.2915 13.9972 12.2915 14.4664C12.2915 14.9357 12.6751 15.3193 13.1444 15.3193H13.8259C14.2952 15.3193 14.6788 14.9357 14.6788 14.4664C14.6788 13.9972 14.2952 13.6136 13.8259 13.6136Z" fill="#0E479C"/>
<path d="M19.143 2.97898H17.7392V1.70169C17.7392 0.76719 16.9761 0 16.0375 0H3.95838C3.01979 0 2.25668 0.76719 2.25668 1.70169V3.01979H0.852887C0.383595 3.01979 0 3.40339 0 3.87268V5.87227C0 6.34156 0.383595 6.72516 0.852887 6.72516C1.27729 6.72516 1.66089 6.34156 1.66089 5.91716V4.72557H2.25668V16.4252C2.25668 17.3597 3.02387 18.1269 3.95838 18.1269H4.89288V19.1471C4.89288 19.6164 5.27647 20 5.74577 20C6.21506 20 6.55376 19.6164 6.59865 19.1471V18.1269H13.4054V19.1471C13.4054 19.6164 13.789 20 14.2583 20C14.7276 20 15.1112 19.6164 15.1112 19.1471V18.1269H16.0375C16.972 18.1269 17.7392 17.3597 17.7392 16.4252V4.68068H18.2942V5.87227C18.2942 6.34156 18.6778 6.72516 19.1471 6.72516C19.6164 6.72516 20 6.34156 20 5.87227V3.83187C19.9959 3.36258 19.6123 2.97898 19.143 2.97898ZM16.0824 1.66089V10.2551H3.93389L3.95838 1.66089H16.0824ZM16.0824 16.466H3.91349L3.92573 11.9567H16.0824V16.466Z" fill="#0E479C"/>
</g>
<defs>
<clipPath id="clip0_6686_240">
<rect width="20" height="20" fill="white"/>
</clipPath>
</defs>
</svg>
