<svg width="24" height="24" viewBox="0 0 24 24" fill="none" xmlns="http://www.w3.org/2000/svg">
<path d="M16.5662 21.999H16.5942C17.1222 21.999 17.6212 21.791 17.9992 21.413L20.7112 18.701C20.8042 18.6082 20.8779 18.498 20.9282 18.3767C20.9785 18.2554 21.0044 18.1253 21.0044 17.994C21.0044 17.8627 20.9785 17.7326 20.9282 17.6113C20.8779 17.49 20.8042 17.3798 20.7112 17.287L16.7112 13.287C16.6184 13.1941 16.5082 13.1203 16.3869 13.07C16.2656 13.0197 16.1355 12.9938 16.0042 12.9938C15.8729 12.9938 15.7428 13.0197 15.6215 13.07C15.5002 13.1203 15.39 13.1941 15.2972 13.287L13.7032 14.881C12.9642 14.661 11.5852 14.161 10.7112 13.287C9.83722 12.413 9.33722 11.034 9.11722 10.295L10.7112 8.701C10.8042 8.60821 10.8779 8.49801 10.9282 8.37669C10.9785 8.25538 11.0044 8.12533 11.0044 7.994C11.0044 7.86267 10.9785 7.73262 10.9282 7.61131C10.8779 7.48999 10.8042 7.37979 10.7112 7.287L6.71122 3.287C6.52004 3.10655 6.2671 3.00603 6.00422 3.00603C5.74133 3.00603 5.48839 3.10655 5.29722 3.287L2.58622 5.999C2.20622 6.379 1.99222 6.901 2.00022 7.434C2.02322 8.858 2.40022 13.804 6.29822 17.702C10.1962 21.6 15.1422 21.976 16.5662 21.999ZM6.00522 5.408L8.59122 7.994L7.29822 9.287C7.18055 9.40434 7.09411 9.54926 7.04678 9.70855C6.99945 9.86784 6.99272 10.0364 7.02722 10.199C7.05122 10.314 7.63822 13.041 9.29822 14.701C10.9582 16.361 13.6852 16.948 13.8002 16.972C13.9628 17.0067 14.1314 17 14.2907 16.9527C14.4501 16.9054 14.595 16.8188 14.7122 16.701L16.0052 15.408L18.5912 17.994L16.5852 19.999C15.3372 19.978 11.0672 19.643 7.71222 16.287C4.34622 12.921 4.02022 8.636 4.00022 7.413L6.00522 5.408ZM19.9992 10.999H21.9992C21.9992 5.869 18.1262 2 12.9892 2V4C17.0512 4 19.9992 6.943 19.9992 10.999Z" fill="#0E479C"/>
<path d="M12.999 8C15.102 8 15.999 8.897 15.999 11H17.999C17.999 7.775 16.224 6 12.999 6V8Z" fill="#0E479C"/>
</svg>
