<svg width="18" height="18" viewBox="0 0 18 18" fill="none" xmlns="http://www.w3.org/2000/svg">
<g id="date-input-svgrepo-com 1">
<path id="Vector" d="M16.0266 6.81926H1.97279C1.66125 6.81926 1.41895 7.06157 1.41895 7.37311V15.5077C1.41895 16.4077 2.14587 17.1346 3.04587 17.1346H14.9536C15.8536 17.1346 16.5805 16.4077 16.5805 15.5077V7.37311C16.5805 7.06157 16.3382 6.81926 16.0266 6.81926ZM6.29972 14.4C6.29972 14.7116 6.05741 14.9539 5.74587 14.9539H4.67279C4.36125 14.9539 4.11895 14.7116 4.11895 14.4V13.327C4.11895 13.0154 4.36125 12.7731 4.67279 12.7731H5.74587C6.05741 12.7731 6.29972 13.0154 6.29972 13.327V14.4ZM10.0728 14.4C10.0728 14.7116 9.83048 14.9539 9.51895 14.9539H8.44587C8.13433 14.9539 7.89202 14.7116 7.89202 14.4V13.327C7.89202 13.0154 8.13433 12.7731 8.44587 12.7731H9.51895C9.83048 12.7731 10.0728 13.0154 10.0728 13.327V14.4ZM10.0728 10.627C10.0728 10.9385 9.83048 11.1808 9.51895 11.1808H8.44587C8.13433 11.1808 7.89202 10.9385 7.89202 10.627V9.55388C7.89202 9.24234 8.13433 9.00003 8.44587 9.00003H9.51895C9.83048 9.00003 10.0728 9.24234 10.0728 9.55388V10.627ZM13.8805 10.627C13.8805 10.9385 13.6382 11.1808 13.3266 11.1808H12.2536C11.942 11.1808 11.6997 10.9385 11.6997 10.627V9.55388C11.6997 9.24234 11.942 9.00003 12.2536 9.00003H13.3266C13.6382 9.00003 13.8805 9.24234 13.8805 9.55388V10.627ZM14.9536 2.49234H13.6036V1.93849C13.6036 1.35003 13.1189 0.865417 12.5305 0.865417C11.942 0.865417 11.4574 1.35003 11.4574 1.93849V2.49234H6.57664V1.93849C6.57664 1.35003 6.09202 0.865417 5.50356 0.865417C4.9151 0.865417 4.43048 1.35003 4.43048 1.93849V2.49234H3.04587C2.14587 2.49234 1.41895 3.21926 1.41895 4.11926V4.67311C1.41895 4.98465 1.66125 5.22696 1.97279 5.22696H16.0613C16.3728 5.22696 16.6151 4.98465 16.6151 4.67311V4.11926C16.5805 3.21926 15.8536 2.49234 14.9536 2.49234Z" fill="#E8F1FF"/>
</g>
</svg>
