<svg width="22" height="22" viewBox="0 0 22 22" fill="none" xmlns="http://www.w3.org/2000/svg">
<g clip-path="url(#clip0_6686_320)">
<path d="M9.27228 12.081C9.27228 12.7049 8.76657 13.2106 8.1427 13.2106C7.51886 13.2106 7.01315 12.7049 7.01315 12.081C7.01315 11.4572 7.51886 10.9514 8.1427 10.9514C8.76657 10.9515 9.27228 11.4572 9.27228 12.081ZM13.8573 10.9515C13.2335 10.9515 12.7277 11.4572 12.7277 12.0811C12.7277 12.7049 13.2335 13.2106 13.8573 13.2106C14.4811 13.2106 14.9869 12.7049 14.9869 12.0811C14.9869 11.4572 14.4812 10.9515 13.8573 10.9515ZM22 11.4514V13.5982C22 14.6759 21.1263 15.5496 20.0485 15.5496H18.6323C17.2291 19.4458 13.6459 21.7991 11 21.7991C8.3541 21.7991 4.77087 19.4458 3.36765 15.5496H1.95153C0.873709 15.5496 0 14.6759 0 13.5981V11.4514C0 10.7097 0.413794 10.0647 1.02307 9.73456C1.04353 6.68674 1.93183 4.30639 3.66713 2.66081C5.38838 1.02857 7.85551 0.200874 11 0.200874C14.1445 0.200874 16.6116 1.02857 18.3329 2.66078C20.0681 4.30635 20.9564 6.68674 20.9769 9.73453C21.5862 10.0647 22 10.7097 22 11.4514ZM17.8696 12.0882C17.8696 11.586 17.8439 11.1142 17.8059 10.657C16.9398 9.86462 15.3675 9.26336 13.3832 9.03995C13.6437 9.33292 13.8688 9.71832 14.0053 10.2256C12.7898 9.26807 10.404 9.49598 8.59938 7.35321C8.49592 7.23354 8.40644 7.11919 8.32909 7.01469C8.32819 7.01343 8.32718 7.01246 8.32628 7.01124L8.3265 7.01131C8.00545 6.57713 7.89599 6.31889 7.88988 6.60474C7.83693 9.06763 6.09127 10.9877 4.15282 11.2585C4.14057 11.5294 4.13054 11.8029 4.13054 12.0882C4.13054 13.1292 4.30053 14.078 4.58955 14.933C5.67841 16.2464 7.47659 16.6173 9.06813 16.7156C9.36359 16.2456 10.0265 15.9174 10.7985 15.9174C11.8452 15.9174 12.6937 16.5197 12.6937 17.2627C12.6937 18.0057 11.8452 18.608 10.7985 18.608C9.99339 18.608 9.30729 18.251 9.03269 17.7484C7.92036 17.6837 6.69756 17.4941 5.60774 16.9794C7.14033 19.2385 9.51626 20.433 11 20.433C13.3315 20.433 17.8696 17.4877 17.8696 12.0882ZM19.802 9.49986C19.6778 4.18136 16.642 1.37183 11 1.37183C5.35797 1.37183 2.32226 4.18136 2.19802 9.49986H2.94886C3.2234 7.70726 3.80363 6.23301 4.6846 5.09943C6.08846 3.29313 8.21326 2.37722 11 2.37722C13.7867 2.37722 15.9115 3.29313 17.3155 5.09943C18.1964 6.23297 18.7766 7.70726 19.0512 9.49986H19.802Z" fill="#0E479C"/>
</g>
<defs>
<clipPath id="clip0_6686_320">
<rect width="22" height="22" fill="white"/>
</clipPath>
</defs>
</svg>
