<svg width="26" height="26" viewBox="0 0 26 26" fill="none" xmlns="http://www.w3.org/2000/svg">
<path d="M20.666 11.9172C20.666 12.4694 21.1137 12.9172 21.666 12.9172C22.2183 12.9172 22.666 12.4694 22.666 11.9172H20.666ZM3.33268 11.9172C3.33268 12.4694 3.7804 12.9172 4.33268 12.9172C4.88497 12.9172 5.33268 12.4694 5.33268 11.9172H3.33268ZM3.80719 12.5902L3.56465 11.6201L3.56464 11.6201L3.80719 12.5902ZM5.6917 12.1191L5.93424 13.0892L5.9343 13.0892L5.6917 12.1191ZM5.6917 19.2986L5.9343 18.3284L5.93424 18.3284L5.6917 19.2986ZM3.80719 18.8274L3.56464 19.7976L3.56465 19.7976L3.80719 18.8274ZM22.1915 12.5902L22.4341 11.6201L22.4341 11.6201L22.1915 12.5902ZM20.307 12.1191L20.0644 13.0892L20.0644 13.0892L20.307 12.1191ZM20.307 19.2986L20.0644 18.3284L20.0644 18.3284L20.307 19.2986ZM22.1915 18.8274L22.4341 19.7976L22.4341 19.7976L22.1915 18.8274ZM22.666 11.9172C22.666 6.5784 18.3381 2.25049 12.9993 2.25049V4.25049C17.2336 4.25049 20.666 7.68297 20.666 11.9172H22.666ZM12.9993 2.25049C7.66059 2.25049 3.33268 6.5784 3.33268 11.9172H5.33268C5.33268 7.68297 8.76516 4.25049 12.9993 4.25049V2.25049ZM3.16602 16.7254V14.6922H1.16602V16.7254H3.16602ZM3.16602 14.6922C3.16602 14.1568 3.53034 13.6902 4.04974 13.5604L3.56464 11.6201C2.15497 11.9725 1.16602 13.2391 1.16602 14.6922H3.16602ZM4.04973 13.5604L5.93424 13.0892L5.44916 11.149L3.56465 11.6201L4.04973 13.5604ZM5.9343 13.0892C5.71331 13.1445 5.49935 12.9773 5.49935 12.7497H7.49935C7.49935 11.6762 6.49059 10.8885 5.4491 11.149L5.9343 13.0892ZM5.49935 12.7497V18.6679H7.49935V12.7497H5.49935ZM5.49935 18.6679C5.49935 18.4404 5.71331 18.2732 5.9343 18.3284L5.4491 20.2687C6.49059 20.5291 7.49935 19.7414 7.49935 18.6679H5.49935ZM5.93424 18.3284L4.04973 17.8573L3.56465 19.7976L5.44916 20.2687L5.93424 18.3284ZM4.04974 17.8573C3.53034 17.7274 3.16602 17.2608 3.16602 16.7254H1.16602C1.16602 18.1786 2.15497 19.4451 3.56464 19.7976L4.04974 17.8573ZM24.8327 16.7254V14.6922H22.8327V16.7254H24.8327ZM24.8327 14.6922C24.8327 13.2391 23.8437 11.9725 22.4341 11.6201L21.949 13.5604C22.4683 13.6902 22.8327 14.1568 22.8327 14.6922H24.8327ZM22.4341 11.6201L20.5495 11.1489L20.0644 13.0892L21.949 13.5604L22.4341 11.6201ZM20.5496 11.149C19.508 10.8885 18.4993 11.6763 18.4993 12.7497H20.4993C20.4993 12.9772 20.2854 13.1445 20.0644 13.0892L20.5496 11.149ZM18.4993 12.7497V18.6679H20.4993V12.7497H18.4993ZM18.4993 18.6679C18.4993 19.7414 19.508 20.5291 20.5496 20.2687L20.0644 18.3284C20.2854 18.2732 20.4993 18.4404 20.4993 18.6679H18.4993ZM20.5495 20.2687L22.4341 19.7976L21.949 17.8573L20.0644 18.3284L20.5495 20.2687ZM22.4341 19.7976C23.8437 19.4451 24.8327 18.1786 24.8327 16.7254H22.8327C22.8327 17.2608 22.4683 17.7274 21.949 17.8573L22.4341 19.7976ZM20.666 19.5005V20.0422H22.666V19.5005H20.666ZM20.666 20.0422C20.666 20.6865 20.1437 21.2088 19.4993 21.2088V23.2088C21.2483 23.2088 22.666 21.7911 22.666 20.0422H20.666ZM19.4993 21.2088H15.7077V23.2088H19.4993V21.2088ZM14.6243 22.8338H11.3743V24.8338H14.6243V22.8338ZM11.3743 22.8338C11.0292 22.8338 10.7493 22.554 10.7493 22.2088H8.74935C8.74935 23.6585 9.92458 24.8338 11.3743 24.8338V22.8338ZM10.7493 22.2088C10.7493 21.8637 11.0292 21.5838 11.3743 21.5838V19.5838C9.92458 19.5838 8.74935 20.7591 8.74935 22.2088H10.7493ZM11.3743 21.5838H14.6243V19.5838H11.3743V21.5838ZM14.6243 21.5838C14.9695 21.5838 15.2493 21.8637 15.2493 22.2088H17.2493C17.2493 20.7591 16.0741 19.5838 14.6243 19.5838V21.5838ZM15.2493 22.2088C15.2493 22.554 14.9695 22.8338 14.6243 22.8338V24.8338C16.0741 24.8338 17.2493 23.6585 17.2493 22.2088H15.2493Z" fill="#0E479C"/>
</svg>
