<svg width="50" height="50" viewBox="0 0 50 50" fill="none" xmlns="http://www.w3.org/2000/svg">
<path d="M24.9998 26.1785C23.0103 26.1785 21.3916 27.7971 21.3916 29.7867C21.3916 31.2232 22.2355 32.466 23.4535 33.0461V38.5686H26.5462V33.046C27.7642 32.4658 28.6081 31.2231 28.6081 29.7866C28.6081 27.7971 26.9894 26.1785 24.9998 26.1785Z" fill="#0E479C"/>
<path d="M35.5668 17.9221V10.567C35.5668 4.74031 30.8265 0 24.9998 0C19.1731 0 14.4328 4.74031 14.4328 10.567V17.9221C10.0578 21.1648 7.21631 26.3648 7.21631 32.2165C7.21631 42.0224 15.1939 50 24.9998 50C34.8057 50 42.7833 42.0224 42.7833 32.2165C42.7833 26.3648 39.9419 21.1648 35.5668 17.9221ZM17.5256 10.567C17.5256 6.44567 20.8785 3.09278 24.9998 3.09278C29.1212 3.09278 32.474 6.44567 32.474 10.567V16.0823C30.2004 15.0248 27.6681 14.433 24.9998 14.433C22.3316 14.433 19.7992 15.0248 17.5256 16.0824V10.567ZM24.9998 46.9072C16.8993 46.9072 10.3091 40.317 10.3091 32.2165C10.3091 24.116 16.8993 17.5258 24.9998 17.5258C33.1003 17.5258 39.6905 24.116 39.6905 32.2165C39.6905 40.317 33.1003 46.9072 24.9998 46.9072Z" fill="#0E479C"/>
</svg>
