<svg width="306" height="30" viewBox="0 0 306 30" fill="none" xmlns="http://www.w3.org/2000/svg">
<g clip-path="url(#clip0_6686_275)">
<path d="M4.91382 26.7879V29.5455H0V2.66667H4.94434V11C6.43986 9.12121 8.97307 7.87879 11.8725 7.87879C17.2442 7.87879 22.4327 11.9091 22.4327 18.9697C22.4327 25.9394 17.0916 30.0303 11.9641 30.0303C9.00359 30 6.47038 28.8485 4.91382 26.7879ZM17.5494 18.8788C17.5494 15.2121 14.7415 12.3333 11.1095 12.3333C7.44704 12.3333 4.7307 15.2424 4.7307 18.8788C4.7307 22.5455 7.44704 25.4848 11.1095 25.4848C14.711 25.4848 17.5494 22.5758 17.5494 18.8788Z" fill="#0E479C"/>
<path d="M24.1416 18.9394C24.1416 11.8788 29.3301 7.84848 34.7628 7.84848C37.5707 7.84848 40.0734 8.9697 41.6605 10.8182V8.27273H46.6048V29.5455H41.6605V26.7879C40.0734 28.7879 37.5096 30 34.6712 30C29.5132 30 24.1416 25.9394 24.1416 18.9394ZM41.9046 18.8788C41.9046 15.2424 39.1883 12.3333 35.4953 12.3333C31.8328 12.3333 29.0249 15.2121 29.0249 18.8788C29.0249 22.5758 31.8328 25.4848 35.4953 25.4848C39.1883 25.4848 41.9046 22.5455 41.9046 18.8788Z" fill="#0E479C"/>
<path d="M49.7793 8.30303H54.6931V10.9091C56.1276 9.06061 58.3251 7.84848 61.1025 7.84848C66.4741 7.84848 69.5872 11.1515 69.5872 16.9394V29.5455H64.5818V17.4242C64.5818 14.1212 62.9642 12.0909 59.7595 12.0909C56.9516 12.0909 54.7542 14.1212 54.7542 17.8788V29.5455H49.8098V8.30303H49.7793Z" fill="#0E479C"/>
<path d="M71.937 18.9394C71.937 11.8788 77.1255 7.84848 82.5582 7.84848C85.3661 7.84848 87.8688 8.9697 89.4559 10.8182V8.27273H94.4002V29.5455H89.4253V26.7879C87.8688 28.7879 85.3051 30 82.4666 30C77.3087 30 71.937 25.9394 71.937 18.9394ZM89.7 18.8788C89.7 15.2424 86.9837 12.3333 83.2907 12.3333C79.6282 12.3333 76.8203 15.2121 76.8203 18.8788C76.8203 22.5758 79.6282 25.4848 83.2907 25.4848C86.9837 25.4848 89.7 22.5455 89.7 18.8788Z" fill="#0E479C"/>
<path d="M102.305 26.7879V29.5455H97.3916V2.66667H102.336V11C103.831 9.12121 106.365 7.87879 109.264 7.87879C114.636 7.87879 119.824 11.9091 119.824 18.9697C119.824 25.9394 114.483 30.0303 109.356 30.0303C106.395 30 103.862 28.8485 102.305 26.7879ZM114.941 18.8788C114.941 15.2121 112.133 12.3333 108.501 12.3333C104.839 12.3333 102.122 15.2424 102.122 18.8788C102.122 22.5455 104.839 25.4848 108.501 25.4848C112.103 25.4848 114.941 22.5758 114.941 18.8788Z" fill="#0E479C"/>
<path d="M124.524 0C126.478 0 127.637 1.24242 127.637 3.09091C127.637 4.93939 126.478 6.15151 124.524 6.15151C122.51 6.15151 121.411 4.93939 121.411 3.09091C121.411 1.24242 122.632 0 124.524 0ZM122.022 8.30303H126.996V29.5758H122.022V8.30303Z" fill="#0E479C"/>
<path d="M134.962 26.7879V29.5455H130.048V2.66667H134.993V11C136.488 9.12121 139.021 7.87879 141.921 7.87879C147.293 7.87879 152.481 11.9091 152.481 18.9697C152.481 25.9394 147.14 30.0303 142.012 30.0303C139.052 30 136.549 28.8485 134.962 26.7879ZM147.598 18.8788C147.598 15.2121 144.79 12.3333 141.158 12.3333C137.495 12.3333 134.779 15.2424 134.779 18.8788C134.779 22.5455 137.495 25.4848 141.158 25.4848C144.759 25.4848 147.598 22.5758 147.598 18.8788Z" fill="#0E479C"/>
<path d="M157.181 0C159.135 0 160.295 1.24242 160.295 3.09091C160.295 4.93939 159.135 6.15151 157.181 6.15151C155.167 6.15151 154.068 4.93939 154.068 3.09091C154.068 1.24242 155.289 0 157.181 0ZM154.709 8.30303H159.684V29.5758H154.709V8.30303Z" fill="#0E479C"/>
<path d="M162.706 2.66667H167.68V29.5758H162.706V2.66667Z" fill="#0E479C"/>
<path d="M170.03 18.9697C170.03 12.7576 174.914 7.84848 181.17 7.84848C187.549 7.84848 192.188 12.5152 192.188 18.7879V20.6364H174.761C175.463 23.6667 177.844 25.6667 181.353 25.6667C184.131 25.6667 186.267 24.2121 187.274 21.9091L191.364 24.2424C189.502 27.697 186.206 30 181.353 30C174.608 30 170.03 25.1212 170.03 18.9697ZM175.036 16.5455H187.183C186.45 13.6667 184.253 12.1818 181.17 12.1818C178.21 12.1818 175.89 13.9394 175.036 16.5455Z" fill="#0E479C"/>
<path d="M192.891 8.30303H196.553V5.06061L201.528 1.66667V8.27273H205.892V12.6667H201.528V20.6364C201.528 24.3333 202.077 24.9394 205.892 24.9394V29.5455H205.19C198.567 29.5455 196.553 27.4242 196.553 20.6667V12.697H192.891V8.30303Z" fill="#0E479C"/>
<path d="M210.562 26.3939C211.691 26.3939 212.363 27.1212 212.363 28.1515C212.363 29.1818 211.691 29.9394 210.562 29.9394C209.433 29.9394 208.761 29.1818 208.761 28.1515C208.761 27.1212 209.524 26.3939 210.562 26.3939Z" fill="#0E479C"/>
<path d="M216.361 18.9394C216.361 12.697 221.305 7.84848 227.531 7.84848C232.171 7.84848 236.108 10.5152 237.664 14.3939L235.711 15.1818C234.276 11.8485 231.316 9.75758 227.501 9.75758C222.373 9.75758 218.467 13.8182 218.467 18.9091C218.467 24 222.434 28.0303 227.592 28.0303C231.56 28.0303 234.429 25.7273 235.802 22.4242L237.786 23.2727C236.108 27.2121 232.476 29.9697 227.562 29.9697C221.244 30 216.361 25.0606 216.361 18.9394Z" fill="#0E479C"/>
<path d="M242.09 18.9394C242.09 12.7273 247.065 7.84848 253.23 7.84848C259.395 7.84848 264.37 12.7273 264.37 18.9394C264.37 25.1515 259.365 30 253.23 30C247.095 30 242.09 25.1515 242.09 18.9394ZM262.203 18.9394C262.203 13.8485 258.235 9.78788 253.23 9.78788C248.133 9.78788 244.226 13.8485 244.226 18.9394C244.226 24.0303 248.133 28.0606 253.23 28.0606C258.235 28.0606 262.203 24.0303 262.203 18.9394Z" fill="#0E479C"/>
<path d="M269.803 8.30303H271.817V12.3636C273.16 9.63636 275.968 7.84848 279.63 7.84848C283.995 7.84848 286.772 9.9697 287.901 13.1515C289.183 10.0606 292.296 7.84848 296.447 7.84848C302.429 7.84848 306 11.6667 306 17.2727V29.5758H303.925V17.1515C303.925 12.8485 300.995 9.75758 296.417 9.75758C292.174 9.75758 288.848 12.6061 288.848 17.1515V29.5758H286.772V16.7273C286.772 12.5455 283.995 9.75758 279.508 9.75758C275.113 9.75758 271.939 12.8788 271.939 17.5455V29.5758H269.803V8.30303Z" fill="#0E479C"/>
</g>
<defs>
<clipPath id="clip0_6686_275">
<rect width="306" height="30" fill="white"/>
</clipPath>
</defs>
</svg>
