<svg width="22" height="22" viewBox="0 0 22 22" fill="none" xmlns="http://www.w3.org/2000/svg">
<g clip-path="url(#clip0_6721_38266)">
<path d="M10.9778 13.178C14.5858 13.178 17.5118 10.252 17.5118 6.644C17.5338 3.036 14.6078 0.110001 10.9998 0.110001C7.39182 0.110001 4.46582 3.036 4.46582 6.644C4.46582 8.382 5.14782 10.032 6.37982 11.264C7.58982 12.496 9.26182 13.178 10.9778 13.178ZM10.9778 2.288C13.3758 2.288 15.3338 4.246 15.3338 6.644C15.3338 9.042 13.3758 11 10.9778 11C8.57982 11 6.62182 9.042 6.62182 6.644C6.62182 5.478 7.08382 4.378 7.89782 3.564C8.73382 2.75 9.83382 2.288 10.9778 2.288Z" fill="white"/>
<path d="M21.6702 20.152L20.7902 18.942C19.0742 16.676 16.4122 15.356 13.5742 15.356H8.2282C4.8402 15.334 1.7162 17.27 0.198199 20.306C-0.0438012 20.856 0.198199 21.494 0.748199 21.736C1.2762 21.978 1.8702 21.758 2.1562 21.274C3.3002 18.964 5.6542 17.512 8.2282 17.534H13.5742C15.7082 17.534 17.7322 18.546 19.0082 20.24L19.9102 21.45C20.2622 21.934 20.9442 22.022 21.4282 21.67C21.9342 21.318 22.0222 20.636 21.6702 20.152Z" fill="white"/>
</g>
<defs>
<clipPath id="clip0_6721_38266">
<rect width="22" height="22" fill="white"/>
</clipPath>
</defs>
</svg>
