<svg width="22" height="22" viewBox="0 0 22 22" fill="none" xmlns="http://www.w3.org/2000/svg">
<path d="M18.7918 10.3583V6.45334C18.7918 2.75917 17.9302 1.83333 14.4652 1.83333H7.53516C4.07016 1.83333 3.2085 2.75917 3.2085 6.45334V16.775C3.2085 19.2133 4.54684 19.7908 6.16934 18.0492L6.17849 18.04C6.93015 17.2425 8.07599 17.3067 8.72682 18.1775L9.65266 19.415" stroke="#363636" stroke-width="1.5" stroke-linecap="round" stroke-linejoin="round"/>
<path d="M16.6833 19.6167C18.3034 19.6167 19.6167 18.3034 19.6167 16.6833C19.6167 15.0633 18.3034 13.75 16.6833 13.75C15.0633 13.75 13.75 15.0633 13.75 16.6833C13.75 18.3034 15.0633 19.6167 16.6833 19.6167Z" stroke="#363636" stroke-width="1.5" stroke-linecap="round" stroke-linejoin="round"/>
<path d="M20.1667 20.1667L19.25 19.25" stroke="#363636" stroke-width="1.5" stroke-linecap="round" stroke-linejoin="round"/>
<path d="M7.3335 6.41667H14.6668" stroke="#363636" stroke-width="1.5" stroke-linecap="round" stroke-linejoin="round"/>
<path d="M8.25 10.0833H13.75" stroke="#363636" stroke-width="1.5" stroke-linecap="round" stroke-linejoin="round"/>
</svg>
