<svg width="50" height="50" viewBox="0 0 50 50" fill="none" xmlns="http://www.w3.org/2000/svg">
<g clip-path="url(#clip0_6686_339)">
<path d="M25 0C11.1934 0 0 11.1934 0 25C0 38.8066 11.1934 50 25 50C38.8066 50 50 38.8066 50 25C50 11.1934 38.8066 0 25 0ZM25 47.5C12.5934 47.5 2.5 37.4066 2.5 25C2.5 12.5934 12.5934 2.5 25 2.5C37.4066 2.5 47.5 12.5934 47.5 25C47.5 37.4066 37.4066 47.5 25 47.5Z" fill="#0E479C"/>
<path d="M25.0001 11.25C17.5725 11.25 11.5367 17.1434 11.2751 24.5075L9.63425 22.8667C9.14587 22.3784 8.35505 22.3784 7.86677 22.8667C7.37839 23.3551 7.37839 24.1459 7.86677 24.6342L11.6168 28.3842C12.1052 28.8726 12.896 28.8726 13.3843 28.3842L17.1342 24.6342C17.6226 24.1458 17.6226 23.355 17.1342 22.8667C16.8901 22.6217 16.5701 22.5 16.2501 22.5C15.93 22.5 15.61 22.6217 15.3659 22.8658L13.8076 24.4241C14.1151 18.4934 18.9942 13.75 25.0001 13.75C29.3126 13.75 33.0225 16.2167 34.9092 19.7875L36.7734 17.9233C34.3675 13.93 30.0026 11.25 25.0001 11.25Z" fill="#0E479C"/>
<path d="M42.1341 25.3658L38.3841 21.6158C37.8957 21.1274 37.1049 21.1274 36.6166 21.6158L32.8666 25.3658C32.3783 25.8542 32.3783 26.645 32.8666 27.1333C33.355 27.6216 34.1458 27.6216 34.6341 27.1333L36.1924 25.575C35.8849 31.5066 31.0058 36.25 24.9999 36.25C20.6874 36.25 16.9774 33.7833 15.0907 30.2125L13.2266 32.0766C15.6324 36.07 19.9974 38.75 24.9999 38.75C32.4275 38.75 38.4633 32.8566 38.7249 25.4925L40.3657 27.1333C40.6099 27.3783 40.9299 27.5 41.2499 27.5C41.5699 27.5 41.89 27.3783 42.1341 27.1342C42.6216 26.6458 42.6216 25.8542 42.1341 25.3658Z" fill="#0E479C"/>
</g>
<defs>
<clipPath id="clip0_6686_339">
<rect width="50" height="50" fill="white"/>
</clipPath>
</defs>
</svg>
