<svg width="50" height="50" viewBox="0 0 50 50" fill="none" xmlns="http://www.w3.org/2000/svg">
<g clip-path="url(#clip0_6686_332)">
<path d="M24.9998 0C11.2152 0 0 11.2153 0 24.9999C0 38.7848 11.2152 49.9999 24.9998 49.9999C38.7848 49.9999 49.9997 38.7847 49.9997 24.9999C49.9998 11.2153 38.7848 0 24.9998 0ZM24.9998 46.951C12.8957 46.951 3.04881 37.1045 3.04881 24.9999C3.04881 12.8957 12.8957 3.04881 24.9998 3.04881C37.1045 3.04881 46.951 12.8957 46.951 24.9999C46.951 37.1045 37.1046 46.951 24.9998 46.951ZM18.6121 40.5552L19.7579 40.9713L18.2811 45.042L17.1354 44.6264L18.6121 40.5552ZM13.6334 37.3474L14.5683 38.1304L11.7877 41.4504L10.8528 40.6677L13.6334 37.3474ZM10.047 32.6395L10.6573 33.6941L6.90919 35.8634L6.29882 34.8084L10.047 32.6395ZM8.50242 28.1868L4.23799 28.9389L4.02633 27.7384L8.29088 26.9863L8.50242 28.1868ZM8.35911 22.2746L4.09446 21.5218L4.30611 20.3215L8.57076 21.0737L8.35911 22.2746ZM10.2488 16.6676L6.49905 14.5025L7.10877 13.4468L10.8586 15.6122L10.2488 16.6676ZM12.0922 7.94711L14.8756 11.2642L13.9422 12.0474L11.1584 8.7304L12.0922 7.94711ZM18.6562 4.48055L20.137 8.54998L18.9921 8.96708L17.5107 4.89766L18.6562 4.48055ZM26.0103 7.80053H24.7914V3.4695H26.0103V7.80053ZM32.1217 4.61908L33.2675 5.03596L31.787 9.10561L30.6414 8.6885L32.1217 4.61908ZM36.7647 12.3034L35.8303 11.5195L38.6147 8.20251L39.5482 8.98645L36.7647 12.3034ZM40.3497 17.0171L39.7401 15.9607L43.4909 13.7956L44.1005 14.8517L40.3497 17.0171ZM41.8979 21.47L46.1625 20.7183L46.3747 21.9197L42.1098 22.6714L41.8979 21.47ZM42.0422 27.3806L46.3067 28.1315L46.0949 29.3337L41.83 28.5809L42.0422 27.3806ZM40.1543 32.9885L43.9046 35.1536L43.2947 36.2099L39.5446 34.0443L40.1543 32.9885ZM36.4589 37.6117L39.2433 40.9285L38.3084 41.7121L35.5254 38.3948L36.4589 37.6117ZM31.4094 40.6879L32.891 44.7573L31.7454 45.1746L30.2638 41.1052L31.4094 40.6879ZM24.3901 41.8563H25.6097V46.1879H24.3901V41.8563ZM27.7581 25.0005C27.7581 26.024 27.1938 26.9066 26.366 27.3829V30.9879L24.792 33.9998L23.2183 30.9879V27.0875C22.6261 26.5825 22.2426 25.8395 22.2426 24.9999C22.2426 24.0754 22.7011 23.2615 23.3999 22.7615V15.3706L24.9737 12.3578L26.5475 15.3706V22.7181C27.277 23.2148 27.7568 24.0504 27.7581 25.0005Z" fill="#0E479C"/>
</g>
<defs>
<clipPath id="clip0_6686_332">
<rect width="50" height="50" fill="white"/>
</clipPath>
</defs>
</svg>
