<svg width="50" height="50" viewBox="0 0 50 50" fill="none" xmlns="http://www.w3.org/2000/svg">
<path d="M24.4454 8.8526C24.4454 6.09046 25.0004 3.85292 25.0004 3.85292C25.0004 3.85292 25.5554 6.09046 25.5554 8.8526C25.5554 9.43798 25.5266 9.99136 25.4866 10.5128C26.2479 9.6363 27.6362 7.73783 27.6362 5.51948C27.6362 2.47105 25.0004 0 25.0004 0C25.0004 0 22.3662 2.47105 22.3662 5.51948C22.3662 7.73623 23.7545 9.6347 24.5126 10.5128C24.4742 9.99136 24.4454 9.43798 24.4454 8.8526Z" fill="#0E479C"/>
<path d="M25.5564 41.1474C25.5564 43.9111 25.0014 46.1487 25.0014 46.1487C25.0014 46.1487 24.4464 43.9111 24.4464 41.1474C24.4464 40.5636 24.4736 40.0086 24.5136 39.4888C23.7539 40.3637 22.3672 42.2622 22.3672 44.4805C22.3672 47.5289 25.0014 50 25.0014 50C25.0014 50 27.6372 47.5289 27.6372 44.4805C27.6372 42.2638 26.2473 40.3669 25.4876 39.4888C25.5276 40.0086 25.5564 40.562 25.5564 41.1474Z" fill="#0E479C"/>
<path d="M17.489 12.608C17.3034 12.3345 17.1131 12.0402 16.926 11.7171C16.0511 10.2025 15.6481 8.79983 15.6481 8.79983C15.6481 8.79983 16.6605 9.85222 17.537 11.3652C17.7209 11.6867 17.8808 11.9986 18.0248 12.2977C18.1639 11.5748 18.3239 10.0937 17.6233 8.8782C16.6557 7.20524 14.4278 6.68384 14.4278 6.68384C14.4278 6.68384 13.764 8.875 14.7284 10.5464C15.4306 11.7651 16.7948 12.3665 17.489 12.608Z" fill="#0E479C"/>
<path d="M32.5124 37.3936C32.6995 37.6671 32.8866 37.9598 33.0754 38.2861C33.9502 39.7991 34.3565 41.2018 34.3565 41.2018C34.3565 41.2018 33.3377 40.151 32.466 38.6363C32.2789 38.3149 32.1189 38.003 31.975 37.7023C31.8374 38.4268 31.6775 39.9079 32.3812 41.1218C33.3473 42.7947 35.5768 43.3161 35.5768 43.3161C35.5768 43.3161 36.2389 41.125 35.2713 39.4536C34.5676 38.2349 33.2065 37.6319 32.5124 37.3936Z" fill="#0E479C"/>
<path d="M10.5111 24.6913C9.95447 24.2099 8.75013 23.3319 7.34747 23.3303C5.41541 23.3303 3.84961 24.9984 3.84961 24.9984C3.84961 24.9984 5.41541 26.6682 7.34587 26.6682C8.75173 26.6682 9.95447 25.7901 10.5111 25.3087C10.18 25.3327 9.82971 25.3487 9.45866 25.3487C7.70893 25.3487 6.29187 24.9968 6.29187 24.9968C6.29187 24.9968 7.71053 24.645 9.45866 24.645C9.83131 24.6482 10.18 24.6657 10.5111 24.6913Z" fill="#0E479C"/>
<path d="M39.4873 25.3087C40.0439 25.7901 41.2466 26.6682 42.6493 26.6682C44.5829 26.6682 46.1487 25 46.1487 25C46.1487 25 44.5829 23.3318 42.6493 23.3318C41.2466 23.3318 40.0439 24.2099 39.4873 24.6913C39.8184 24.6657 40.1686 24.6513 40.5365 24.6513C42.2894 24.6513 43.7065 25.0032 43.7065 25.0032C43.7065 25.0032 42.2878 25.3583 40.5365 25.3551C40.1686 25.3519 39.8184 25.3343 39.4873 25.3087Z" fill="#0E479C"/>
<path d="M17.5343 38.6316C16.6611 40.1446 15.6455 41.197 15.6455 41.197C15.6455 41.197 16.0501 39.7943 16.9234 38.2781C17.1121 37.9582 17.3024 37.6623 17.4895 37.3889C16.7938 37.6288 15.4311 38.2317 14.7274 39.4489C13.7614 41.1218 14.4235 43.3114 14.4235 43.3114C14.4235 43.3114 16.6531 42.79 17.6191 41.1202C18.3212 39.9031 18.1613 38.4205 18.0237 37.6975C17.8814 37.9982 17.7215 38.3101 17.5343 38.6316Z" fill="#0E479C"/>
<path d="M32.4659 11.3668C33.3407 9.85221 34.3563 8.79821 34.3563 8.79821C34.3563 8.79821 33.9533 10.2041 33.0752 11.7187C32.8945 12.0402 32.701 12.3345 32.5122 12.608C33.2096 12.368 34.5706 11.7651 35.2712 10.5495C36.2388 8.87818 35.5767 6.68542 35.5767 6.68542C35.5767 6.68542 33.3455 7.20842 32.3811 8.87978C31.679 10.0969 31.8373 11.5763 31.978 12.2993C32.122 11.9986 32.2819 11.6867 32.4659 11.3668Z" fill="#0E479C"/>
<path d="M9.44452 12.9774C6.80713 11.4532 3.34766 12.4992 3.34766 12.4992C3.34766 12.4992 4.17134 16.0178 6.81033 17.542C8.73279 18.6504 11.0695 18.3977 12.2083 18.1786C11.7364 17.9515 11.2422 17.6988 10.7368 17.4077C8.34414 16.0258 6.68398 14.4264 6.68398 14.4264C6.68398 14.4264 8.90072 15.0646 11.2918 16.4465C11.7972 16.7391 12.2626 17.0414 12.6945 17.3357C12.317 16.2369 11.3686 14.0858 9.44452 12.9774Z" fill="#0E479C"/>
<path d="M43.1904 32.4595C41.2664 31.3512 38.9329 31.6023 37.7925 31.823C38.2611 32.0517 38.7585 32.3012 39.2607 32.5939C41.6534 33.9742 43.3152 35.5736 43.3152 35.5736C43.3152 35.5736 41.1 34.937 38.7074 33.5551C38.2019 33.2624 37.7365 32.9618 37.3047 32.6659C37.6821 33.7646 38.6354 35.9126 40.5562 37.0226C43.1952 38.5452 46.6515 37.5008 46.6515 37.5008C46.6515 37.5008 45.8262 33.9822 43.1904 32.4595Z" fill="#0E479C"/>
<path d="M6.68397 35.5736C6.68397 35.5736 8.34574 33.971 10.7368 32.5907C11.2438 32.2996 11.7364 32.0485 12.2099 31.8198C11.0711 31.6007 8.73119 31.348 6.81193 32.458C4.17134 33.9806 3.34766 37.4976 3.34766 37.4976C3.34766 37.4976 6.80553 38.542 9.44451 37.0194C11.367 35.911 12.317 33.7583 12.6961 32.6627C12.2626 32.9586 11.7988 33.2577 11.295 33.5519C8.90072 34.9338 6.68397 35.5736 6.68397 35.5736Z" fill="#0E479C"/>
<path d="M43.3152 14.4249C43.3152 14.4249 41.6534 16.0243 39.2639 17.4061C38.7585 17.6988 38.2643 17.9515 37.7925 18.177C38.9329 18.3978 41.2696 18.6489 43.1872 17.5405C45.8294 16.0147 46.6515 12.4992 46.6515 12.4992C46.6515 12.4992 43.1968 11.4548 40.5562 12.9774C38.6322 14.0874 37.6853 16.237 37.3047 17.3326C37.7365 17.0399 38.2019 16.7376 38.7074 16.4465C41.1 15.0646 43.3152 14.4249 43.3152 14.4249Z" fill="#0E479C"/>
<path d="M25 23.8196C25 23.8196 18.4121 17.8443 14.2041 18.3673C22.2922 22.6137 25 38.2893 25 38.2893C25 38.2893 25.7949 24.2051 35.7958 18.3673C30.4507 17.3901 25 23.8196 25 23.8196Z" fill="#0E479C"/>
<path d="M24.9998 20.9744C26.4952 20.9744 27.7075 19.7621 27.7075 18.2666C27.7075 16.7711 26.4952 15.5588 24.9998 15.5588C23.5043 15.5588 22.292 16.7711 22.292 18.2666C22.292 19.7621 23.5043 20.9744 24.9998 20.9744Z" fill="#0E479C"/>
</svg>
