<svg width="64" height="64" viewBox="0 0 64 64" fill="none" xmlns="http://www.w3.org/2000/svg">
<g filter="url(#filter0_d_6686_849)">
<path d="M12 28C12 39.0457 20.9543 48 32 48C43.0457 48 52 39.0457 52 28C52 16.9543 43.0457 8 32 8C20.9543 8 12 16.9543 12 28Z" fill="#25D366"/>
</g>
<path fill-rule="evenodd" clip-rule="evenodd" d="M39 20.875C37.125 19 34.625 18 32 18C26.5 18 22 22.5 22 28C22 29.75 22.5 31.5 23.375 33L22 38L27.25 36.625C28.75 37.375 30.375 37.875 32 37.875C37.5 37.875 42 33.375 42 27.875C42 25.25 40.875 22.75 39 20.875ZM32 36.25C30.5 36.25 29 35.875 27.75 35.125L27.5 35L24.375 35.875L25.25 32.875L25 32.5C24.125 31.125 23.75 29.625 23.75 28.125C23.75 23.625 27.5 19.875 32 19.875C34.25 19.875 36.25 20.75 37.875 22.25C39.5 23.875 40.25 25.875 40.25 28.125C40.25 32.5 36.625 36.25 32 36.25ZM36.5 30C36.25 29.875 35 29.25 34.75 29.25C34.5 29.125 34.375 29.125 34.25 29.375C34.125 29.625 33.625 30.125 33.5 30.375C33.375 30.5 33.25 30.5 33 30.5C32.75 30.375 32 30.125 31 29.25C30.25 28.625 29.75 27.75 29.625 27.5C29.5 27.25 29.625 27.125 29.75 27C29.875 26.875 30 26.75 30.125 26.625C30.25 26.5 30.25 26.375 30.375 26.25C30.5 26.125 30.375 26 30.375 25.875C30.375 25.75 29.875 24.5 29.625 24C29.5 23.625 29.25 23.625 29.125 23.625C29 23.625 28.875 23.625 28.625 23.625C28.5 23.625 28.25 23.625 28 23.875C27.75 24.125 27.125 24.75 27.125 26C27.125 27.25 28 28.375 28.125 28.625C28.25 28.75 29.875 31.375 32.375 32.375C34.5 33.25 34.875 33 35.375 33C35.875 33 36.875 32.375 37 31.875C37.25 31.25 37.25 30.75 37.125 30.75C37 30.125 36.75 30.125 36.5 30Z" fill="white"/>
<defs>
<filter id="filter0_d_6686_849" x="0" y="0" width="64" height="64" filterUnits="userSpaceOnUse" color-interpolation-filters="sRGB">
<feFlood flood-opacity="0" result="BackgroundImageFix"/>
<feColorMatrix in="SourceAlpha" type="matrix" values="0 0 0 0 0 0 0 0 0 0 0 0 0 0 0 0 0 0 127 0" result="hardAlpha"/>
<feOffset dy="4"/>
<feGaussianBlur stdDeviation="6"/>
<feComposite in2="hardAlpha" operator="out"/>
<feColorMatrix type="matrix" values="0 0 0 0 0.211765 0 0 0 0 0.196078 0 0 0 0 0.196078 0 0 0 0.12 0"/>
<feBlend mode="normal" in2="BackgroundImageFix" result="effect1_dropShadow_6686_849"/>
<feBlend mode="normal" in="SourceGraphic" in2="effect1_dropShadow_6686_849" result="shape"/>
</filter>
</defs>
</svg>
